<svg width="24" height="24"
    xmlns="http://www.w3.org/2000/svg">

    <g>
        <path id="svg_1" d="m0,0l10.6667,0l0,13.3333l-10.6667,0l0,-13.3333zm24,0l-10.6667,0l0,8l10.6667,0l0,-8zm-16,10.6667l0,-8.00003l-5.33333,0l0,8.00003l5.33333,0zm13.3333,-5.33337l0,-2.66666l-5.3333,0l0,2.66666l5.3333,0zm0,7.99997l0,8l-5.3333,0l0,-8l5.3333,0zm-13.3333,8l0,-2.6666l-5.33333,0l0,2.6666l5.33333,0zm16,-10.6666l-10.6667,0l0,13.3333l10.6667,0l0,-13.3333zm-24,5.3333l10.6667,0l0,8l-10.6667,0l0,-8z" clip-rule="evenodd" fill-rule="evenodd" fill="#878787" />
    </g>
</svg>